<svg width="16" height="18" viewBox="0 0 16 18" fill="none" xmlns="http://www.w3.org/2000/svg">
<path d="M7.86111 8.65137C8.35497 8.65137 8.77789 8.48711 9.12987 8.15859C9.48125 7.83063 9.65695 7.43619 9.65695 6.97526C9.65695 6.51433 9.48125 6.1196 9.12987 5.79108C8.77789 5.46313 8.35497 5.29915 7.86111 5.29915C7.36726 5.29915 6.94464 5.46313 6.59326 5.79108C6.24127 6.1196 6.06528 6.51433 6.06528 6.97526C6.06528 7.43619 6.24127 7.83063 6.59326 8.15859C6.94464 8.48711 7.36726 8.65137 7.86111 8.65137ZM7.86111 17.0319C5.4517 15.1184 3.65228 13.3408 2.46284 11.6994C1.2728 10.0585 0.67778 8.53963 0.67778 7.14287C0.67778 5.04773 1.4 3.3786 2.84445 2.13549C4.2883 0.892371 5.96052 0.270813 7.86111 0.270813C9.7617 0.270813 11.4339 0.892371 12.8778 2.13549C14.3222 3.3786 15.0444 5.04773 15.0444 7.14287C15.0444 8.53963 14.4497 10.0585 13.2603 11.6994C12.0702 13.3408 10.2705 15.1184 7.86111 17.0319Z" fill="#A91079"/>
</svg>
