<svg width="16" height="11" viewBox="0 0 16 11" fill="none" xmlns="http://www.w3.org/2000/svg">
<path d="M0.722684 1.46013C0.81321 1.06347 1.03575 0.709307 1.35385 0.455642C1.67195 0.201976 2.06676 0.0638459 2.47362 0.0638733H13.2486C13.6555 0.0638459 14.0503 0.201976 14.3684 0.455642C14.6865 0.709307 14.909 1.06347 14.9996 1.46013L7.86112 5.82311L0.722684 1.46013ZM0.677788 2.48555V8.86435L5.8884 5.66957L0.677788 2.48555ZM6.7486 6.19664L0.84929 9.81255C0.995046 10.1199 1.22509 10.3795 1.51265 10.5612C1.80022 10.7429 2.13347 10.8392 2.47362 10.8389H13.2486C13.5887 10.8389 13.9218 10.7424 14.2092 10.5606C14.4966 10.3787 14.7265 10.119 14.8721 9.81166L8.97274 6.19575L7.86112 6.87547L6.7486 6.19575V6.19664ZM9.83384 5.67046L15.0445 8.86435V2.48555L9.83384 5.66957V5.67046Z" fill="#A91079"/>
</svg>
