<svg width="15" height="15" viewBox="0 0 15 15" fill="none" xmlns="http://www.w3.org/2000/svg">
<path d="M7.30697 0.300018C5.35759 0.300018 5.11246 0.308997 4.34653 0.343118C3.58061 0.379035 3.05892 0.499356 2.60188 0.677143C2.12248 0.857462 1.68824 1.14031 1.32953 1.50592C0.964151 1.86481 0.681335 2.299 0.500757 2.77827C0.32297 3.23441 0.201751 3.757 0.166732 4.52023C0.132612 5.28794 0.123632 5.53218 0.123632 7.48425C0.123632 9.43452 0.132612 9.67876 0.166732 10.4447C0.202649 11.2097 0.32297 11.7314 0.500757 12.1884C0.68483 12.6607 0.929962 13.0612 1.32953 13.4608C1.72821 13.8604 2.12868 14.1064 2.60098 14.2896C3.05892 14.4673 3.57971 14.5886 4.34474 14.6236C5.11156 14.6577 5.35579 14.6667 7.30697 14.6667C9.25814 14.6667 9.50147 14.6577 10.2683 14.6236C11.0324 14.5877 11.5559 14.4673 12.0129 14.2896C12.492 14.1092 12.926 13.8263 13.2844 13.4608C13.684 13.0612 13.9291 12.6607 14.1132 12.1884C14.2901 11.7314 14.4113 11.2097 14.4472 10.4447C14.4813 9.67876 14.4903 9.43452 14.4903 7.48335C14.4903 5.53218 14.4813 5.28795 14.4472 4.52112C14.4113 3.757 14.2901 3.23441 14.1132 2.77827C13.9326 2.29898 13.6498 1.8648 13.2844 1.50592C12.9258 1.14018 12.4915 0.857306 12.012 0.677143C11.5541 0.499356 11.0315 0.378137 10.2674 0.343118C9.50058 0.308997 9.25724 0.300018 7.30517 0.300018H7.30786H7.30697ZM6.66316 1.59481H7.30786C9.22581 1.59481 9.45299 1.6011 10.2099 1.63612C10.9103 1.66755 11.291 1.78517 11.5442 1.88305C11.8792 2.01324 12.1189 2.16948 12.3703 2.4209C12.6217 2.67231 12.7771 2.91116 12.9073 3.24698C13.006 3.4993 13.1228 3.88001 13.1542 4.58039C13.1892 5.33733 13.1964 5.5645 13.1964 7.48156C13.1964 9.39861 13.1892 9.62668 13.1542 10.3836C13.1228 11.084 13.0051 11.4638 12.9073 11.717C12.7921 12.0289 12.6083 12.3109 12.3694 12.5422C12.118 12.7936 11.8792 12.949 11.5433 13.0792C11.2919 13.1779 10.9112 13.2947 10.2099 13.327C9.45299 13.3611 9.22581 13.3692 7.30786 13.3692C5.38991 13.3692 5.16184 13.3611 4.4049 13.327C3.70452 13.2947 3.32471 13.1779 3.07149 13.0792C2.75947 12.9642 2.47719 12.7807 2.24541 12.5422C2.00634 12.3106 1.82224 12.0283 1.70666 11.7161C1.60879 11.4638 1.49116 11.0831 1.45973 10.3827C1.42561 9.62578 1.41843 9.39861 1.41843 7.47976C1.41843 5.56181 1.42561 5.33553 1.45973 4.57859C1.49206 3.87822 1.60879 3.4975 1.70756 3.24429C1.83776 2.90936 1.99399 2.66962 2.24541 2.4182C2.49683 2.16679 2.73567 2.01145 3.07149 1.88125C3.32471 1.78248 3.70452 1.66575 4.4049 1.63342C5.06756 1.6029 5.32437 1.59392 6.66316 1.59302V1.59481ZM11.142 2.78725C11.0288 2.78725 10.9167 2.80954 10.8121 2.85286C10.7075 2.89618 10.6125 2.95968 10.5324 3.03972C10.4524 3.11977 10.3889 3.21479 10.3456 3.31937C10.3023 3.42396 10.28 3.53605 10.28 3.64925C10.28 3.76245 10.3023 3.87454 10.3456 3.97912C10.3889 4.0837 10.4524 4.17873 10.5324 4.25877C10.6125 4.33882 10.7075 4.40231 10.8121 4.44563C10.9167 4.48895 11.0288 4.51125 11.142 4.51125C11.3706 4.51125 11.5898 4.42043 11.7515 4.25877C11.9131 4.09712 12.004 3.87786 12.004 3.64925C12.004 3.42063 11.9131 3.20138 11.7515 3.03972C11.5898 2.87806 11.3706 2.78725 11.142 2.78725ZM7.30786 3.79471C6.81856 3.78708 6.33263 3.87686 5.87836 4.05882C5.42409 4.24079 5.01056 4.51131 4.66184 4.85463C4.31312 5.19795 4.03618 5.60721 3.84715 6.05859C3.65812 6.50997 3.56077 6.99444 3.56077 7.4838C3.56077 7.97316 3.65812 8.45763 3.84715 8.90901C4.03618 9.36039 4.31312 9.76965 4.66184 10.113C5.01056 10.4563 5.42409 10.7268 5.87836 10.9088C6.33263 11.0907 6.81856 11.1805 7.30786 11.1729C8.2763 11.1578 9.19996 10.7625 9.87948 10.0723C10.559 9.38207 10.9398 8.45236 10.9398 7.4838C10.9398 6.51524 10.559 5.58553 9.87948 4.89533C9.19996 4.20514 8.2763 3.80982 7.30786 3.79471ZM7.30786 5.08861C7.94299 5.08861 8.5521 5.34091 9.0012 5.79001C9.4503 6.23911 9.70261 6.84823 9.70261 7.48335C9.70261 8.11848 9.4503 8.72759 9.0012 9.17669C8.5521 9.62579 7.94299 9.87809 7.30786 9.87809C6.67274 9.87809 6.06363 9.62579 5.61452 9.17669C5.16542 8.72759 4.91312 8.11848 4.91312 7.48335C4.91312 6.84823 5.16542 6.23911 5.61452 5.79001C6.06363 5.34091 6.67274 5.08861 7.30786 5.08861Z" fill="#EEEEEE"/>
</svg>
