<svg width="16" height="15" viewBox="0 0 16 15" fill="none" xmlns="http://www.w3.org/2000/svg">
<path fill-rule="evenodd" clip-rule="evenodd" d="M2.3702 0.827124C2.52731 0.670248 2.71597 0.548553 2.92367 0.470104C3.13137 0.391654 3.35337 0.358242 3.57497 0.372081C3.79656 0.38592 4.01268 0.446694 4.20901 0.550376C4.40533 0.654058 4.57739 0.79828 4.71376 0.973485L6.32552 3.04408C6.62093 3.4239 6.72509 3.91865 6.60836 4.38557L6.1172 6.35201C6.09181 6.45386 6.09318 6.56054 6.12118 6.66171C6.14919 6.76287 6.20288 6.85507 6.27703 6.92937L8.48321 9.13555C8.55759 9.20985 8.64995 9.26363 8.75129 9.29164C8.85262 9.31965 8.95949 9.32094 9.06147 9.29538L11.027 8.80422C11.2574 8.7466 11.4979 8.74213 11.7303 8.79113C11.9627 8.84013 12.181 8.94132 12.3685 9.08706L14.4391 10.6979C15.1835 11.2771 15.2517 12.377 14.5855 13.0424L13.657 13.9708C12.9926 14.6353 11.9995 14.9271 11.0737 14.6012C8.70426 13.7675 6.55294 12.411 4.77931 10.6324C3.00079 8.859 1.64433 6.70799 0.810515 4.33888C0.485469 3.41402 0.777292 2.42003 1.44175 1.75557L2.3702 0.827124Z" fill="#A91079"/>
</svg>
