<svg width="16" height="15" viewBox="0 0 16 15" fill="none" xmlns="http://www.w3.org/2000/svg">
<path d="M15.0406 1.04066C15.0732 0.959074 15.0812 0.869695 15.0636 0.783606C15.0459 0.697517 15.0034 0.618504 14.9412 0.556363C14.8791 0.494221 14.8001 0.451684 14.714 0.434024C14.6279 0.416364 14.5385 0.424359 14.4569 0.457017L1.39494 5.68199H1.39404L0.988185 5.84362C0.911315 5.87428 0.844416 5.9256 0.794878 5.99189C0.74534 6.05819 0.715091 6.13689 0.707473 6.2193C0.699854 6.30171 0.715163 6.38462 0.751707 6.45887C0.788252 6.53313 0.84461 6.59584 0.914556 6.64007L1.2827 6.87353L1.2836 6.87532L5.76869 9.7289L8.62227 14.214L8.62407 14.2158L8.85753 14.5839C8.90191 14.6536 8.96465 14.7097 9.03885 14.746C9.11305 14.7823 9.19583 14.7975 9.27808 14.7898C9.36032 14.7821 9.43885 14.7518 9.50502 14.7023C9.57118 14.6529 9.62242 14.5861 9.65308 14.5094L15.0406 1.04066ZM13.3947 2.73773L6.66571 9.46671L6.47266 9.16322C6.43729 9.10752 6.39007 9.06031 6.33438 9.02494L6.03089 8.83189L12.7599 2.1029L13.8176 1.67998L13.3956 2.73773H13.3947Z" fill="#EEEEEE"/>
</svg>
