<svg width="19" height="15" viewBox="0 0 19 15" fill="none" xmlns="http://www.w3.org/2000/svg">
<path d="M6.25453 14.6667C12.8057 14.6667 16.3894 9.13799 16.3894 4.35194C16.3894 4.19723 16.3894 4.04031 16.3828 3.8856C17.0806 3.37117 17.6827 2.73428 18.1611 2.00477C17.5094 2.29745 16.8187 2.49034 16.1116 2.5772C16.8565 2.12372 17.4144 1.41021 17.6816 0.569286C16.9817 0.991559 16.2158 1.28799 15.4172 1.44561C14.8803 0.86326 14.1699 0.477474 13.396 0.348004C12.622 0.218534 11.8278 0.352605 11.1362 0.729451C10.4447 1.1063 9.89444 1.70489 9.57072 2.4325C9.24701 3.16011 9.1679 3.97614 9.34564 4.75418C7.92946 4.68186 6.54402 4.30715 5.27918 3.65435C4.01433 3.00156 2.89834 2.08527 2.00357 0.9649C1.54933 1.76396 1.4107 2.70914 1.61584 3.60852C1.82098 4.5079 2.35451 5.29404 3.10808 5.80731C2.54339 5.78777 1.99111 5.63333 1.4958 5.35645V5.40617C1.49677 6.24324 1.78148 7.0543 2.3018 7.70224C2.82212 8.35019 3.54614 8.79528 4.35147 8.96229C4.04579 9.04805 3.73002 9.09081 3.41296 9.08937C3.18944 9.09006 2.96636 9.06897 2.74678 9.02638C2.9744 9.74695 3.4176 10.377 4.01431 10.8282C4.61102 11.2794 5.33136 11.5292 6.07442 11.5426C4.81211 12.5524 3.25282 13.1001 1.64769 13.0975C1.36486 13.0987 1.08223 13.0821 0.801407 13.0477C2.43052 14.1056 4.3225 14.6673 6.25453 14.6667Z" fill="#EEEEEE"/>
</svg>
